<?xml version="1.0" standalone="no"?>
<!DOCTYPE svg PUBLIC "-//W3C//DTD SVG 1.1//EN" "http://www.w3.org/Graphics/SVG/1.1/DTD/svg11.dtd" >
<svg xmlns="http://www.w3.org/2000/svg" xmlns:xlink="http://www.w3.org/1999/xlink" version="1.1">
<metadata>
Created by FontForge 20161003 at Tue May 29 06:27:38 2018
 By www-data
</metadata>
<defs>
<font id="be" horiz-adv-x="1024" >
  <font-face 
    font-family="be"
    font-weight="500"
    font-stretch="normal"
    units-per-em="1024"
    panose-1="2 0 6 3 0 0 0 0 0 0"
    ascent="896"
    descent="-128"
    x-height="792"
    bbox="-0.297872 -178 1170 896"
    underline-thickness="0"
    underline-position="0"
    unicode-range="U+0078-E9E9"
  />
<missing-glyph 
 />
    <glyph glyph-name=".notdef" 
 />
    <glyph glyph-name=".notdef" 
 />
    <glyph glyph-name=".null" horiz-adv-x="0" 
 />
    <glyph glyph-name="nonmarkingreturn" horiz-adv-x="341" 
 />
    <glyph glyph-name="x" unicode="x" horiz-adv-x="1001" 
d="M281 543q-27 -1 -53 -1h-83q-18 0 -36.5 -6t-32.5 -18.5t-23 -32t-9 -45.5v-76h912v41q0 16 -0.5 30t-0.5 18q0 13 -5 29t-17 29.5t-31.5 22.5t-49.5 9h-133v-97h-438v97zM955 310v-52q0 -23 0.5 -52t0.5 -58t-10.5 -47.5t-26 -30t-33 -16t-31.5 -4.5q-14 -1 -29.5 -0.5
t-29.5 0.5h-32l-45 128h-439l-44 -128h-29h-34q-20 0 -45 1q-25 0 -41 9.5t-25.5 23t-13.5 29.5t-4 30v167h911zM163 247q-12 0 -21 -8.5t-9 -21.5t9 -21.5t21 -8.5q13 0 22 8.5t9 21.5t-9 21.5t-22 8.5zM316 123q-8 -26 -14 -48q-5 -19 -10.5 -37t-7.5 -25t-3 -15t1 -14.5
t9.5 -10.5t21.5 -4h37h67h81h80h64h36q23 0 34 12t2 38q-5 13 -9.5 30.5t-9.5 34.5q-5 19 -11 39h-368zM336 498v228q0 11 2.5 23t10 21.5t20.5 15.5t34 6h188q31 0 51.5 -14.5t20.5 -52.5v-227h-327z" />
    <glyph glyph-name="top" unicode="&#xe6;" 
d="M610 895h388q10 0 17.5 -7.5t7.5 -17.5v-388z" />
    <glyph glyph-name="menu" unicode="&#xe600;" 
d="M97 672h830v-110h-830v110zM97 435h830v-110h-830v110zM97 206h830v-110h-830v110z" />
    <glyph glyph-name="new" unicode="&#xe601;" 
d="M615 843l357 -357v-519l-876 876h519zM526 563l109 109l-28 28l-66 -66l14 118l-28 29l-109 -109l28 -28l67 66l-15 -118zM620 470l24 23l-34 34l20 19l31 -31l24 23l-32 32l19 19l34 -34l23 23l-62 62l-109 -108zM910 398l-30 29l-90 -50l49 92l-23 22l-93 -47l51 89
l-29 30l-77 -141l29 -29l84 42l-43 -83l28 -29z" />
    <glyph glyph-name="email" unicode="&#xe606;" 
d="M102 731v0h821q14 0 24 -10t10 -24v-1v-625q0 -14 -10 -24t-24 -10h-1h-820q-15 0 -25 10t-10 24v1v625q0 14 10 24t25 10v0zM888 633v0l-361 -362q-6 -6 -14.5 -6t-14.5 6l-362 362v-528h752v528v0zM860 663v0h-696l348 -348l348 348v0z" />
    <glyph glyph-name="qq" unicode="&#xe608;" 
d="M916 307q21 -65 28 -106.5t3 -48.5l-3 -10q-6 -3 -19 -7q-12 -4 -29 0q-9 2 -23.5 11t-25.5 19l-12 9q-6 -22 -17 -43l-27 -49q32 -12 51 -34q11 -12 15 -23t4 -17v-8q0 -37 -46 -60q-29 -15 -64.5 -22.5t-54.5 -7.5h-21q-7 -4 -79 11q-12 2 -23 7q-9 4 -23 9
q-12 5 -17 7l-25 4q-10 1 -24 -4q-1 0 -24.5 -10.5t-38.5 -12.5l-80 -11q-72 -2 -139 30q-14 6 -23.5 14.5t-13.5 16.5q-4 9 -6 15q-2 7 -2 11l-1 3q-4 21 18 48q6 5 12 11q8 6 14 9q8 5 13 8q6 4 10 4l3 2q-16 24 -28 49l-17 43q-41 -36 -60 -39q-19 -2 -30 0t-15 5l-3 2
q-19 17 27 165q5 11 13 35q7 18 12 30q7 13 12 22q6 11 11 17q4 7 7 11q5 4 6 5l1 2q0 8 -0.5 21t0.5 52q3 52 14 102l2.5 8.5t8.5 23.5t12 31q22 50 55 91q41 53 104.5 79.5t106.5 28.5h43q4 -2 18.5 0t45.5 -4t62 -15q31 -10 67 -32q36 -23 62 -57q33 -42 54 -91
q22 -49 28.5 -89.5t9.5 -74.5t1 -53l-2 -21q33 -30 62 -123v1zM316 47q79 -82 192.5 -82t192.5 82t79 199q0 50 -15 96q-109 -96 -257 -96t-256 96q-15 -47 -15 -96q0 -117 79 -199zM390 501q-80 -32 -76 -49q0 -11 19 -25q5 -3 11 -7t12 -6t11 -3t9 -1h3q-5 7 -10 17l-7 19
q33 -34 83 -53q16 -7 32 -10t23 -3l8 2q30 -4 64 11q22 8 43 21t30 23l10 9q-4 -12 -7 -19l-10 -17q29 4 46 17q9 6 14 11.5t5 9.5v4q0 2 -1.5 5.5t-20.5 16.5q-17 12 -54 27q-23 8 -52 13q-31 6 -48 6l-19 2q-67 -2 -118 -21zM422 739q-25 0 -42.5 -27.5t-17.5 -66.5
q0 -19 4 -37q5 -18 13.5 -30.5t19.5 -20t23 -7.5q26 0 43.5 27.5t17.5 67.5q0 18 -5 37q-4 17 -12.5 29.5t-19.5 20.5q-12 7 -24 7zM443 607q-26 0 -26 38t26 38t26 -38t-26 -38zM637.5 711.5q-17.5 27.5 -43 27.5t-43 -27t-17.5 -67t17.5 -67.5t43 -27.5t43 27.5t17.5 67
t-17.5 67zM554 620q-8 2 -6 10q3 18 13 34q9 15 23 13q26 -4 22 -57q-1 -7 -8 -7q-9 2 -7 9q2 36 -9 38q-13 2 -18 -34q-2 -8 -10 -6z" />
    <glyph glyph-name="qr-code" unicode="&#xe613;" 
d="M0 418h476v478h-476v-478zM68 828h340v-342h-340v342zM170 589h136v136h-136v-136zM1019 896h-475v-478h475v478zM951 486h-339v342h339v-342zM0 -128h476v478h-476v-478zM68 282h340v-342h-340v342zM956 350v-205h-141v205h-271v-478h135v68h-67v342h135v-205h277v273
h-68zM849 725h-136v-136h136v136zM170 43h136v136h-136v-136zM928 -128h91v92h-91v-92zM758 -128h91v92h-91v-92z" />
    <glyph glyph-name="search" unicode="&#xe614;" 
d="M937 71l-176 176q-1 1 -9 7q61 93 61 204q0 101 -50 187.5t-136.5 136.5t-188 50t-188 -50t-136.5 -136.5t-50 -188t50 -188t136.5 -136.5t187.5 -50q111 0 204 61q6 -7 7 -8l177 -177q23 -23 55.5 -23t55.5 23t23 55.5t-23 56.5zM438 202q-106 0 -181 75t-75 181t75 181
t181 75t181 -75t75 -181t-75 -181t-181 -75v0z" />
    <glyph glyph-name="circledown" unicode="&#xe615;" 
d="M512 -64q185 0 316.5 131.5t131.5 316.5t-131.5 316.5t-316.5 131.5t-316.5 -131.5t-131.5 -316.5t131.5 -316.5t316.5 -131.5zM501 227v0q-6 3 -10 7v0v0l-160 159q-9 9 -9 22.5t9 23t22.5 9.5t22.5 -10l137 -136l136 137q9 10 22.5 10t23 -9.5t9.5 -22.5t-10 -23
l-158 -160q-15 -15 -35 -7z" />
    <glyph glyph-name="jie" unicode="&#xe61b;" 
d="M984 402l-151 152q-8 7 -18.5 7t-18.5 -7l-133 -133l-114 114l133 133q7 8 7 18.5t-7 18.5l-152 151q-7 8 -18 8t-18 -8l-152 -151q-7 -8 -7 -18.5t7 -18.5l133 -133l-114 -114l-133 133q-8 7 -18.5 7t-18.5 -7l-151 -152q-8 -7 -8 -18t8 -18l151 -152q8 -7 18.5 -7
t18.5 7l133 133l114 -114l-133 -133q-7 -8 -7 -18.5t7 -18.5l152 -151q7 -8 18 -8t18 8l152 151q7 8 7 18.5t-7 18.5l-133 133l114 114l133 -133q8 -7 18.5 -7t18.5 7l151 152q8 7 8 18t-8 18zM929 384l-114 -114l-115 114l115 114zM512 498l114 -114l-114 -114l-114 114z
M398 687l114 114l114 -114l-114 -115zM512 196l114 -115l-114 -114l-114 114zM324 384l-115 -114l-114 114l114 114z" />
    <glyph glyph-name="download" unicode="&#xe61d;" horiz-adv-x="1071" 
d="M906 -128h-733q-69 0 -121 48.5t-52 116.5v201h120v-162q0 -34 24.5 -58.5t58.5 -24.5h659q34 0 58 24.5t24 58.5v162h127v-201q0 -69 -48.5 -117t-116.5 -48zM248 527h161v369h248l1 -369l161 1l-286 -371z" />
    <glyph glyph-name="schedule" unicode="&#xe622;" 
d="M38 376.5q0 96.5 37.5 184t101 151t151 101t184 37.5t184 -37.5t150.5 -101t100.5 -151t37.5 -184t-37.5 -184t-100.5 -150.5t-150.5 -100.5t-184 -37.5t-184 37.5t-151 100.5t-101 150.5t-37.5 184zM898 376.5q0 105.5 -51.5 194.5t-141 141t-194.5 52t-194 -52
t-141 -141t-52 -194t52 -194.5t141 -141t194.5 -51.5t194.5 51.5t140.5 140.5t51.5 194.5zM691 376h-137v208q0 18 -12.5 30.5t-30.5 12.5t-30 -12.5t-12 -30.5v-293h222q18 0 30.5 12.5t12.5 30t-12.5 30t-30.5 12.5z" />
    <glyph glyph-name="thumbs-up-o" unicode="&#xe630;" 
d="M781 -85h-610q-55 0 -91.5 36.5t-36.5 91.5v298q0 55 36.5 91.5t91.5 36.5h102l158 359q3 12 14 18.5t24 6.5q71 0 121 -50t50 -120v-128h222q53 -7 85 -52q35 -41 22 -93l-60 -384q-10 -49 -45.5 -80t-82.5 -31zM341 0h440q15 0 27 10.5t15 23.5l60 384q0 21 -8 30
q-17 17 -30 17h-248q-19 0 -30.5 12t-11.5 31v175q0 28 -17 49.5t-43 31.5l-154 -346v-418zM171 384q-20 0 -31.5 -11.5t-11.5 -31.5v-298q0 -20 11.5 -31.5t31.5 -11.5h85v384h-85z" />
    <glyph glyph-name="stsina" unicode="&#xe636;" horiz-adv-x="1025" 
d="M769 399q-9 3 -12.5 5t-6.5 7.5t2 14.5q26 65 1 102q-26 35 -87.5 34.5t-141.5 -33.5v0q-27 -11 -25 6q0 2 1 5q26 83 -11 120q-43 43 -141.5 4.5t-194.5 -135.5q-73 -73 -113 -147.5t-40 -139.5q0 -62 37 -114t98 -86.5t137.5 -53.5t157.5 -19q80 0 154 18t129.5 47.5
t96.5 67t62 78.5t21 80q0 53 -36 88t-88 51zM430 30q-83 -8 -156.5 12t-119 62t-51.5 97q-8 84 76 151.5t211 80.5q84 8 157 -12t119 -62t51 -97q8 -84 -76 -151.5t-211 -80.5zM954.5 709q-49.5 55 -119 77t-139.5 7v0q-16 -4 -24.5 -17.5t-5.5 -29.5t17 -24.5t29 -5.5
q50 11 99.5 -4.5t84.5 -54.5t45.5 -90.5t-5.5 -98.5v0q-5 -15 2.5 -29.5t23 -19.5t30 2.5t19.5 22.5v0q22 66 7.5 138t-64 127zM851 616q-24 27 -58 37.5t-68 3.5q-13 -3 -21 -15t-5 -25.5t15 -21t25 -4.5v0q37 7 62 -20.5t13 -62.5v0q-4 -14 2.5 -26.5t19.5 -16.5t25.5 2.5
t16.5 19.5q11 32 4 67t-31 62zM447 347q-60 16 -120 -10.5t-87 -79.5q-27 -54 -3.5 -107t84.5 -72q63 -21 127.5 6.5t90.5 85.5t-1.5 109.5t-90.5 67.5zM386 162q-13 -19 -36 -26.5t-42 1.5q-20 9 -25 28.5t7 38.5t34.5 26.5t42.5 -0.5t25.5 -28t-6.5 -40zM440 232
q-5 -8 -13.5 -11t-16 0t-10 10.5t2 15t13 10.5t16 0t10 -10.5t-1.5 -14.5z" />
    <glyph glyph-name="play" unicode="&#xe637;" 
d="M512 754q-95 0 -181.5 -36.5t-149 -99t-99 -149t-36.5 -181.5t36.5 -181.5t99 -149t149 -99t181.5 -36.5t181.5 36.5t149 99t99 149t36.5 181.5t-36.5 181.5t-99 149t-149 99t-181.5 36.5zM512 -62q-95 0 -175.5 47t-127.5 127.5t-47 175.5t47 175.5t127.5 127.5
t175.5 47t175.5 -47t127.5 -127.5t47 -175.5t-47 -175.5t-127.5 -127.5t-175.5 -47zM445 131l233 146l-233 146v-292z" />
    <glyph glyph-name="qzone" unicode="&#xe63f;" 
d="M757 456l-300 -215q14 -2 39 -5t103.5 -7.5t159.5 -3.5l-8 36l258 224q8 6 5 16t-13 11l-341 29l-134 315q-4 10 -14 10t-14 -10l-134 -315l-341 -29q-10 -1 -13 -11t5 -16l258 -224l-77 -334q-3 -10 5.5 -16t17.5 -1l293 177l293 -177q4 -2 8 -2q5 0 9 3q9 6 6 16
l-61 264q12 6 25.5 14.5t21.5 14.5l8 6q-2 -1 -7 -3t-25 -7t-45 -9.5t-69 -9t-95.5 -6.5t-126 -0.5t-158.5 7.5l298 216q-1 2 -13.5 5.5t-109 12t-263.5 13.5q-3 1 2 2q50 15 191 25q210 15 356 -16z" />
    <glyph glyph-name="mobile" unicode="&#xe64b;" 
d="M747 764h-439q-6 0 -11 -4.5t-5 -10.5v-696q0 -7 5 -11.5t11 -4.5h439q6 0 11 4.5t5 11.5v696q0 6 -5 10.5t-11 4.5v0v0zM560 740q6 0 6 -5.5t-6 -5.5t-6 5.5t6 5.5v0v0zM459 740h70q5 0 5 -5.5t-5 -5.5h-70q-5 0 -5 5.5t5 5.5v0v0zM528 65q-16 0 -27.5 11.5t-11.5 27.5
t11.5 27t27 11t27 -11t11.5 -27t-11.5 -27.5t-26.5 -11.5v0v0zM726 184q0 -4 -4 -7.5t-10 -3.5h-369q-6 0 -10 3.5t-4 7.5v512q0 4 4 7.5t10 3.5h369q6 0 10 -3.5t4 -7.5v-512v0v0z" />
    <glyph glyph-name="renren" unicode="&#xe64c;" 
d="M426 637v187q-158 -28 -260 -151.5t-102 -287.5q0 -124 60 -227q302 159 302 479zM571 641v191q170 -29 279.5 -155.5t109.5 -294.5q0 -126 -65 -232q-324 163 -324 491zM514 397q-86 -212 -304 -341q60 -57 137.5 -88.5t162.5 -31.5q168 0 294 114q-190 112 -290 347z
" />
    <glyph glyph-name="home" unicode="&#xe656;" 
d="M358 -77h52q21 0 36 15t15 36v154h102v-154q0 -21 15 -36t36 -15h52v256q0 21 -15 36t-37 15h-204q-22 0 -37 -15t-15 -36v-256zM939 371q16 -14 37 -12t34.5 18.5t12 37.5t-18.5 34l-457 384q-15 13 -35 12q-18 -1 -31 -12l-462 -388q-16 -13 -18 -34.5t11.5 -37.5
t34.5 -18t38 12l17 15v-408q0 -21 15 -36t37 -15h51v545l309 259l305 -256v-548h51q22 0 37 15t15 36v411zM666 26h153v-103h-153v103zM205 26h153v-103h-153v103z" />
    <glyph glyph-name="roundright" unicode="&#xe65a;" 
d="M512 832q-185 0 -316.5 -131.5t-131.5 -316.5t131.5 -316.5t316.5 -131.5t316.5 131.5t131.5 316.5t-131.5 316.5t-316.5 131.5zM662 360l-160 -158q-10 -10 -23 -10t-22.5 9.5t-9.5 23t10 22.5l137 136l-136 137q-10 9 -10 22.5t9.5 22.5t23 9t22.5 -9l159 -160v0v0
q4 -4 7 -10v0q8 -20 -7 -35z" />
    <glyph glyph-name="display" unicode="&#xe667;" horiz-adv-x="1086" 
d="M731 -12h-75v37q0 16 -11 27t-27 11h-151q-9 0 -18.5 -9.5t-14.5 -18.5l-5 -10v-37h-75q-9 0 -18.5 -9.5t-14.5 -19.5l-5 -9v-38h453v38q0 15 -11 26.5t-27 11.5zM920 856h-755q-47 0 -80 -33t-33 -80v-529q0 -47 33 -80t80 -33h755q47 0 80 33t33 80v529q0 47 -33 80
t-80 33zM542.5 140q-22.5 0 -38.5 16t-16 39t16 39t38.5 16t39 -16t16.5 -38.5t-16.5 -39t-39 -16.5zM958 327q0 -15 -11 -26t-27 -11h-755q-15 0 -26.5 11t-11.5 26v416q0 15 11.5 26t26.5 11h755q16 0 27 -11t11 -26v-416z" />
    <glyph glyph-name="weixin" unicode="&#xe66d;" 
d="M297 680q-74 -13 -134 -48.5t-97 -83t-54 -105.5t-10.5 -114t40.5 -109t92 -91q10 -7 9 -15t-16 -52l-17 -50l122 65l32 -8q58 -14 107 -14h17l-6 23q-17 63 2 127t64.5 112t115 78t147.5 30h29l-6 21q-23 80 -90 140t-159.5 85.5t-187.5 8.5zM270 528q24 -17 25 -45.5
t-22 -43.5q-18 -12 -37.5 -9.5t-31 15.5t-15.5 31t10 37q11 16 33 20.5t38 -5.5zM528 528q18 -13 22.5 -33t-3.5 -36.5t-26 -25t-39 -0.5q-32 12 -35 46t27 50q12 6 27.5 5.5t26.5 -6.5zM644 398q-112 -20 -182 -96.5t-66 -174.5q3 -51 27 -97.5t64 -79t92 -54t109.5 -23.5
t117.5 12l23 7l49 -27q49 -26 50 -24q1 3 -11 42q-12 36 -11.5 42.5t16.5 17.5q57 41 82 96.5t19.5 109.5t-37 106t-81 88t-118.5 52.5t-143 2.5zM638 257q10 -6 14.5 -20t-0.5 -26q-9 -26 -37.5 -27.5t-38.5 23.5q-12 28 12 47.5t50 2.5zM848 254q15 -15 13 -36t-20 -30
q-28 -14 -49.5 7t-7.5 48q9 17 29 20.5t35 -9.5z" />
    <glyph glyph-name="accountbox" unicode="&#xe66f;" 
d="M128 683v-598q0 -35 25 -60t60 -25h598q35 0 60 25t25 60v598q0 35 -25 60t-60 25h-598q-35 0 -60 -25t-25 -60zM640 512q0 -53 -37.5 -90.5t-90.5 -37.5t-90.5 37.5t-37.5 90.5t37.5 90.5t90.5 37.5t90.5 -37.5t37.5 -90.5zM256 171q0 30 27.5 56t68.5 42t83.5 25
t76.5 9t76.5 -9t83.5 -25t68.5 -42t27.5 -56v-43h-512v43z" />
    <glyph glyph-name="addbox" unicode="&#xe673;" 
d="M811 768h-598q-35 0 -60 -25t-25 -60v-598q0 -35 25 -60t60 -25h598q35 0 60 25t25 60v598q0 35 -25 60t-60 25zM725 341h-170v-170h-86v170h-170v86h170v170h86v-170h170v-86z" />
    <glyph glyph-name="anchor" unicode="&#xe67e;" 
d="M512 853q71 0 121 -50t50 -120q0 -59 -36 -105t-92 -60v-516q71 8 134 41.5t108.5 83.5t72 117t26.5 140q0 18 12.5 30.5t30 12.5t30 -12.5t12.5 -30.5q0 -96 -37 -182.5t-100 -149.5t-149.5 -100t-182.5 -37t-182.5 37t-149.5 100t-100 149.5t-37 182.5q0 18 12.5 30.5
t30 12.5t30 -12.5t12.5 -30.5q0 -73 26.5 -140t72 -117t108.5 -83.5t134 -41.5v516q-56 14 -92 60t-36 105q0 70 50 120t121 50v0zM512 768q-35 0 -60 -25t-25 -60.5t25 -60.5t60 -25t60 25t25 60.5t-25 60.5t-60 25z" />
    <glyph glyph-name="folder" unicode="&#xe67f;" 
d="M922 678h-121l-16 73q-7 34 -36 57.5t-64 23.5v0h-583v0q-42 0 -72 -30t-30 -72v-666q0 -42 30 -72t72 -30h820v0q42 0 72 30t30 72v512q0 42 -30 72t-72 30zM947 64q0 -11 -7.5 -18.5t-17.5 -7.5h-820q-10 0 -17.5 7.5t-7.5 18.5v666q0 10 7.5 17.5t17.5 7.5h327
q9 0 16.5 -5.5t8.5 -14.5l16 -73q6 -25 28 -42.5t47 -17.5v0h377v0q10 0 17.5 -7.5t7.5 -18.5v-512zM710 735l13 -57h-178l-16 73q0 1 -0.5 2.5l-0.5 1.5h157q9 0 16.5 -5.5t8.5 -14.5v0z" />
    <glyph glyph-name="picture" unicode="&#xe680;" horiz-adv-x="1097" 
d="M0 58v694q0 38 26.5 65t64.5 28h915q37 0 64 -28t27 -65v-694q0 -38 -27 -64.5t-64 -27.5h-915q-37 0 -64.5 27.5t-26.5 64.5v0zM73 58q0 -8 6 -13t12 -5h915q7 0 13 5t5 13v694q0 9 -5 14t-13 5h-915q-7 0 -12 -5t-6 -14v-694zM146 112v110l183 183l92 -91l292 292
l238 -238v-256h-805zM146 589q0 45 32 76.5t78 32.5t78 -32.5t32 -76.5t-32 -78t-78 -33t-78 33t-32 78z" />
    <glyph glyph-name="baidu" unicode="&#xe68a;" 
d="M184 356q27 6 46 20t28.5 33.5t15 37.5t6 40.5t0 32.5t-2.5 23q-5 39 -43 80t-87 37q-25 -3 -45 -18.5t-30 -33.5t-17.5 -41t-8.5 -31.5t-2 -14.5v0q-2 -18 -0.5 -42t13 -48.5t27 -43.5t42.5 -28t58 -3zM303 125q-12 -32 -5 -54q4 -13 11 -23t13.5 -14.5t14 -7.5
t10.5 -3.5t4 -0.5v0h59v143h-63q-18 -6 -29.5 -18t-14.5 -22zM391 580q46 0 78.5 46t32.5 111.5t-32.5 112t-78.5 46.5t-78.5 -46.5t-32.5 -112t32.5 -111.5t78.5 -46zM656 569q38 -5 71 18t51 56.5t23 69.5q8 49 -24 97.5t-76 58.5q-42 10 -87.5 -40.5t-50.5 -99.5
q-4 -41 2 -73t29 -57t62 -30zM857 178q-14 11 -37 30.5t-77 73.5t-87 101q-36 56 -81 79.5t-85 16.5t-73.5 -29t-52.5 -54q-21 -35 -51 -67t-54.5 -53t-26.5 -23t-15 -12t-28 -22.5t-33.5 -33.5t-30 -44t-18 -54t2.5 -65q9 -40 27.5 -68.5t36 -41.5t39 -20t28.5 -7.5
t12 -0.5q83 -9 178 13q49 10 88 7.5t64 -7t25 -6.5q5 -1 13 -3.5t32.5 -7.5t47.5 -7t53 0t55 10.5t47.5 28t35.5 48.5q17 41 19.5 78t-6 61.5t-19 43t-19.5 27.5zM476 -35h-144q-29 5 -51 20t-29.5 25t-10.5 17q-20 48 -11 100q7 25 21 43.5t26.5 27.5t27.5 15t20.5 7t8.5 1
v0h77v95l65 -2v-349zM746 -34h-167q-18 4 -31.5 12.5t-20 16.5t-10.5 16.5t-4.5 12t-0.5 4.5v184l67 2v-166q2 -8 8.5 -13t12.5 -6l5 -2h69v186h72v-247zM982 457q0 15 -6.5 34.5t-19 41.5t-39 37t-60.5 15q-111 0 -111 -154q0 -24 1.5 -39.5t8.5 -37.5t19.5 -35.5
t37.5 -22.5t60 -9q20 1 36 5.5t27 14t19.5 19t13 24t8 24.5t4.5 26t1 23v20.5v13.5z" />
    <glyph glyph-name="thumbs-up" unicode="&#xe68b;" 
d="M65 64h163v487h-163v-487zM959 480q0 33 -24 57t-58 24h-256l39 186q1 7 1 12q0 26 -18 43l-43 43l-267 -267q-24 -24 -24 -58v-406q0 -33 24 -57t57 -24h366q25 0 45 14t29 36l123 286q6 15 6 30v77l-1 1z" />
    <glyph glyph-name="calendar2" unicode="&#xe6b4;" 
d="M939 800h-139v64q0 13 -9.5 22.5t-22.5 9.5t-22.5 -9.5t-9.5 -22.5v-64h-192v64q0 13 -9.5 22.5t-22.5 9.5t-22.5 -9.5t-9.5 -22.5v-64h-192v64q0 13 -9.5 22.5t-22.5 9.5t-22.5 -9.5t-9.5 -22.5v-64h-139q-35 0 -60 -25t-25 -60v-758q0 -35 25 -60t60 -25h854
q35 0 60 25t25 60v758q0 35 -25 60t-60 25zM960 -43q0 -8 -6.5 -14.5t-14.5 -6.5h-854q-8 0 -14.5 6.5t-6.5 14.5v758q0 8 6.5 14.5t14.5 6.5h139v-64q0 -13 9.5 -22.5t22.5 -9.5t22.5 9.5t9.5 22.5v64h192v-64q0 -13 9.5 -22.5t22.5 -9.5t22.5 9.5t9.5 22.5v64h192v-64
q0 -13 9.5 -22.5t22.5 -9.5t22.5 9.5t9.5 22.5v64h139q8 0 14.5 -6.5t6.5 -14.5v-758zM224 512h128v-96h-128v96zM224 352h128v-96h-128v96zM224 192h128v-96h-128v96zM448 192h128v-96h-128v96zM448 352h128v-96h-128v96zM448 512h128v-96h-128v96zM672 192h128v-96h-128
v96zM672 352h128v-96h-128v96zM672 512h128v-96h-128v96z" />
    <glyph glyph-name="rss" unicode="&#xe6c8;" 
d="M764 -26h158q0 110 -29.5 214.5t-82.5 193t-129 163t-165.5 126.5t-195.5 81t-218 29v-155q135 0 257.5 -51.5t211 -139t141 -208t52.5 -253.5zM485 -26h158q0 108 -43 207t-115.5 170t-172.5 113.5t-210 42.5v-155q158 0 271 -110q54 -54 83 -123t29 -145zM211 -25
q45 0 77.5 31.5t32.5 75.5q0 45 -32.5 76t-77.5 31t-77 -31t-32 -76q0 -44 32 -75.5t77 -31.5z" />
    <glyph glyph-name="tqq" unicode="&#xe6c9;" 
d="M513 771q-123 0 -213 -86t-90 -216q0 -80 41 -152q11 -22 5 -45t-27.5 -35.5t-45 -7t-34.5 28.5q-24 40 -41 101t-17 107v3q0 26 4 50q18 159 139 265t279 106q25 0 50 -3q160 -18 265 -139t105 -278q0 -25 -3 -51q-19 -159 -139 -265t-278 -107q-26 0 -50 4
q-24 2 -39.5 21.5t-13.5 43.5t21.5 39.5t44.5 12.5q26 -2 37 -2q122 0 212 86.5t90 217.5q0 122 -86 211.5t-216 89.5v0zM665 450q-7 -66 -60 -105.5t-119 -28.5q-133 -128 -155 -315q-3 -23 -3 -46v-14q2 -26 -16 -45.5t-46 -14.5q-20 2 -34.5 16.5t-15.5 35.5q0 54 4 83
q25 210 168 362q-36 50 -28 108q7 65 57 105t114 32t104 -58.5t30 -114.5v0z" />
    <glyph glyph-name="clipboard" unicode="&#xe6d0;" 
d="M427 853h170q42 0 75 -23.5t46 -61.5h50q53 0 90.5 -37.5t37.5 -90.5v-597q0 -53 -37.5 -90.5t-90.5 -37.5h-512q-53 0 -90.5 37.5t-37.5 90.5v597q0 53 37.5 90.5t90.5 37.5h50q13 38 46 61.5t75 23.5zM768 683h-50q-13 -38 -46 -62t-75 -24h-170q-42 0 -75 24t-46 62
h-50q-18 0 -30.5 -12.5t-12.5 -30.5v-597q0 -18 12.5 -30.5t30.5 -12.5h512q18 0 30.5 12.5t12.5 30.5v597q0 18 -12.5 30.5t-30.5 12.5zM597 768h-170q-18 0 -30.5 -12.5t-12.5 -30t12.5 -30t30.5 -12.5h170q18 0 30.5 12.5t12.5 30t-12.5 30t-30.5 12.5z" />
    <glyph glyph-name="businesscard" unicode="&#xe6e6;" 
d="M784 578h-233q-16 0 -27.5 -11.5t-11.5 -27.5t11.5 -27t27.5 -11h233q16 0 27.5 11t11.5 27t-11.5 27.5t-27.5 11.5zM784 423h-155q-17 0 -28 -11.5t-11 -27.5t11 -27.5t28 -11.5h155q16 0 27.5 11.5t11.5 27.5t-11.5 27.5t-27.5 11.5zM784 267h-155q-17 0 -28 -11
t-11 -27t11 -27.5t28 -11.5h155q16 0 27.5 11.5t11.5 27.5t-11.5 27t-27.5 11zM900 73h-776v622h776l1 -622h-1v0zM900 772h-776v0q-32 0 -55 -22.5t-23 -54.5v-622q0 -32 23 -54.5t55 -22.5h776v0q32 0 55 22.5t23 54.5v622q0 32 -23 54.5t-55 22.5v0v0zM473 250h-233v25
q70 28 117 28q46 0 116 -28v-25zM322 469q0 14 9 23t22 8.5t22 -9.5t9 -22v-50v-1q0 -13 -9 -22t-22 -9v0q-13 1 -22 10t-9 22v50zM513 343q-32 14 -66 23q14 25 14 53v50q0 45 -31.5 77t-76.5 32t-77 -32t-32 -77v-50q0 -29 15 -55q-37 -11 -57 -20q-16 -7 -27.5 -24.5
t-12.5 -34.5v-68l3 -6q5 -17 20 -27.5t33 -10.5h278q21 0 37 15t18 36v61q0 19 -11 35t-27 23v0z" />
    <glyph glyph-name="clouddownload" unicode="&#xe6ef;" 
d="M826 468q-22 111 -110 184t-204 73q-91 0 -167 -47t-117 -125q-96 -10 -162 -83t-66 -171q0 -106 75 -181t181 -75h555q88 0 150.5 62.5t62.5 150.5q0 84 -57.5 145t-140.5 67zM725 341l-213 -213l-213 213h128v171h170v-171h128z" />
    <glyph glyph-name="warning" unicode="&#xe6f2;" 
d="M464 530v98h96v-98h-96zM512 -5q159 0 274 115t115 274t-115 274t-274 115t-274 -115t-115 -274t115 -274t274 -115zM512 869q200 0 342.5 -142.5t142.5 -342.5t-142.5 -342.5t-342.5 -142.5t-342.5 142.5t-142.5 342.5t142.5 342.5t342.5 142.5zM464 140v292h96v-292
h-96z" />
    <glyph glyph-name="cross" unicode="&#xe6f5;" 
d="M811 725q18 0 30 -12t12 -30t-12 -31l-269 -268l269 -268q12 -13 12 -31t-12 -30t-30 -12t-31 12l-268 269l-268 -269q-13 -12 -31 -12t-30 12t-12 30t12 31l269 268l-269 268q-12 13 -12 31t12 30t30 12t31 -12l268 -269l268 269q13 12 31 12z" />
    <glyph glyph-name="editor" unicode="&#xe6f6;" 
d="M489.5 361.5q9.5 -9.5 22.5 -9.5t23 9l304 304q9 10 9 23t-9.5 22.5t-22.5 9.5t-23 -9l-304 -304q-9 -10 -9 -23t9.5 -22.5zM832 416q-13 0 -22.5 -9.5t-9.5 -22.5v-288h-576v576h288q13 0 22.5 9.5t9.5 22.5t-9.5 22.5t-22.5 9.5h-288q-27 0 -45.5 -18.5t-18.5 -45.5
v-576q0 -27 18.5 -45.5t45.5 -18.5h576q27 0 45.5 18.5t18.5 45.5v288q0 13 -9.5 22.5t-22.5 9.5v0z" />
    <glyph glyph-name="print" unicode="&#xe6fd;" 
d="M288 64h448v128h-448v-128zM288 384h448v192h-80q-20 0 -34 14t-14 34v80h-320v-320zM896 352q0 13 -9.5 22.5t-22.5 9.5t-22.5 -9.5t-9.5 -22.5t9.5 -22.5t22.5 -9.5t22.5 9.5t9.5 22.5zM960 352v-208q0 -7 -5 -11.5t-11 -4.5h-144v-80q0 -20 -14 -34t-34 -14h-480
q-20 0 -34 14t-14 34v80h-144q-6 0 -11 5t-5 11v208q0 39 28 67.5t68 28.5h64v272q0 20 14 34t34 14h336q20 0 44 -10t38 -24l76 -76q14 -14 24 -38t10 -44v-128h64q40 0 68 -28.5t28 -67.5z" />
    <glyph glyph-name="edit" unicode="&#xe722;" 
d="M128 160v-160h160l472 472l-160 160zM883 595q13 13 13 30.5t-13 30.5l-99 99q-13 13 -30.5 13t-30.5 -13l-78 -78l160 -160z" />
    <glyph glyph-name="eye" unicode="&#xe733;" 
d="M512 768q70 0 135.5 -21t115.5 -55t93.5 -75t73.5 -82t52 -75t32 -55l10 -21q-2 -5 -6 -13.5t-19 -34.5t-32 -51.5t-44.5 -60t-56.5 -64.5t-69.5 -60.5t-82.5 -51.5t-94.5 -34.5t-107.5 -13.5q-70 0 -135.5 21t-115.5 55t-93.5 74.5t-73.5 81.5t-52 74.5t-32 54.5l-10 21
q2 5 6 13.5t19 35t32 52t44.5 60.5t56.5 64.5t69.5 60t82.5 52t94.5 35t107.5 13.5v0zM512 683q-47 0 -92 -12.5t-81 -32t-70.5 -47t-59.5 -54.5t-49 -58t-38 -53t-26 -44q12 -21 26 -43t38 -52.5t49 -57t59.5 -54t70.5 -46.5t81 -31.5t92 -12.5t92 12.5t81 32t70.5 47
t59.5 54t49 57t38 52.5t26 44q-12 22 -26 44t-38 52.5t-49 57t-59.5 54t-70.5 47t-81 32t-92 12.5zM512 555q71 0 121 -50t50 -121t-50 -121t-121 -50t-121 50t-50 121t50 121t121 50zM512 469q-35 0 -60 -25t-25 -60t25 -60t60 -25t60 25t25 60t-25 60t-60 25z" />
    <glyph glyph-name="fastforward" unicode="&#xe737;" 
d="M469 725q18 0 30 -12l299 -299q13 -12 13 -30t-13 -30l-299 -299q-12 -12 -29.5 -12t-30 12.5t-12.5 29.5q0 18 12 31l268 268l-268 268q-12 13 -12 31t12 30t30 12zM213 725q18 0 30 -12l299 -299q13 -12 13 -30t-13 -30l-299 -299q-12 -12 -29.5 -12t-30 12.5
t-12.5 29.5q0 18 12 31l268 268l-268 268q-12 13 -12 31t12 30t30 12z" />
    <glyph glyph-name="favorite" unicode="&#xe739;" 
d="M512 -15l-62 56q-48 44 -71 65t-63 58.5t-59 58t-48.5 52.5t-44 53t-33 50t-26.5 52t-14 50t-6 53q0 99 68 167t167 68q55 0 106 -24t86 -65q35 41 86 65t106 24q99 0 167 -68t68 -167q0 -26 -6 -53t-14 -50t-26.5 -52t-33 -50t-44 -53t-48.5 -52.5t-59 -58t-63 -58.5
t-71 -65z" />
    <glyph glyph-name="favoriteoutline" unicode="&#xe73a;" 
d="M704 768q-55 0 -106 -24t-86 -65q-35 41 -86 65t-106 24q-99 0 -167 -68t-68 -167q0 -26 6 -53t14 -50t26.5 -52t33 -50t44 -53t48.5 -52.5t59 -58t63 -58.5t71 -65l62 -56l62 56q48 44 71 65t63 58.5t59 58t48.5 52.5t44 53t33 50t26.5 52t14 50t6 53q0 99 -68 167
t-167 68zM516 104l-4 -4l-4 4q-57 52 -84 76.5t-71 66.5t-64.5 65.5t-48 57t-39.5 58t-21 52t-9 53.5q0 64 42.5 107t106.5 43q49 0 92 -28.5t60 -72.5h80q17 44 60 72.5t92 28.5q64 0 106.5 -43t42.5 -107q0 -26 -9 -53.5t-21 -52t-39.5 -58t-48 -57t-64.5 -65.5t-71 -66.5
t-84 -76.5z" />
    <glyph glyph-name="file" unicode="&#xe73b;" 
d="M213 896h427l299 -299v-597q0 -53 -37.5 -90.5t-90.5 -37.5h-598q-53 0 -90.5 37.5t-37.5 90.5v768q0 53 37.5 90.5t90.5 37.5zM555 512v299h-342q-18 0 -30 -12.5t-12 -30.5v-768q0 -18 12 -30.5t30 -12.5h598q18 0 30 12.5t12 30.5v512h-298zM818 597l-178 178v-178
h178z" />
    <glyph glyph-name="arrowdown" unicode="&#xe76f;" 
d="M316 546l196 -196l196 196l60 -61l-256 -256l-256 256z" />
    <glyph glyph-name="info" unicode="&#xe771;" 
d="M512 839q-93 0 -177 -36t-145 -97t-97 -145t-36 -177t36 -177t97 -145t145 -97t177 -36t177 36t145 97t97 145t36 177t-36 177t-97 145t-145 97t-177 36zM558 156h-92v274h92v-274zM558 521h-92v91h92v-91z" />
    <glyph glyph-name="insertemoticon" unicode="&#xe777;" 
d="M512 811q-116 0 -214.5 -57t-155.5 -155.5t-57 -214.5t57 -214.5t155.5 -155.5t214.5 -57t214 57t155.5 155.5t57.5 214.5t-57.5 214.5t-155.5 155.5t-214 57zM512 43q-93 0 -171.5 45.5t-124 124t-45.5 171.5t45.5 171.5t124 124t171.5 45.5t171.5 -45.5t124 -124
t45.5 -171.5t-45.5 -171.5t-124 -124t-171.5 -45.5zM661.5 427q26.5 0 45 18.5t18.5 45t-18.5 45.5t-45 19t-45.5 -19t-19 -45.5t19 -45t45.5 -18.5zM362.5 427q26.5 0 45.5 18.5t19 45t-19 45.5t-45.5 19t-45 -19t-18.5 -45.5t18.5 -45t45 -18.5zM512 149q73 0 132.5 41.5
t85.5 108.5h-436q26 -67 85.5 -108.5t132.5 -41.5z" />
    <glyph glyph-name="arrowleft" unicode="&#xe779;" 
d="M658 199l-196 196l196 195l-61 61l-256 -256l256 -256z" />
    <glyph glyph-name="arrowright" unicode="&#xe77a;" 
d="M366 194l196 195l-196 196l61 60l256 -256l-256 -256z" />
    <glyph glyph-name="arrowup" unicode="&#xe77b;" 
d="M316 238l196 196l196 -196l60 61l-256 256l-256 -256z" />
    <glyph glyph-name="loader" unicode="&#xe78d;" 
d="M693 246q18 0 30 -13l121 -121q13 -12 13 -30q0 -17 -13 -30t-30 -13q-18 0 -30 13l-121 121q-12 12 -12 30t12.5 30.5t29.5 12.5zM331 246q18 0 30.5 -12.5t12.5 -30.5t-13 -30l-121 -121q-12 -13 -30 -13q-17 0 -29.5 12.5t-12.5 30.5t12 30l121 121q12 13 30 13z
M85 427h171q18 0 30.5 -12.5t12.5 -30.5t-12.5 -30.5t-30.5 -12.5h-171q-17 0 -29.5 12.5t-12.5 30.5t12.5 30.5t29.5 12.5zM512 171q18 0 30.5 -12.5t12.5 -30.5v-171q0 -17 -12.5 -29.5t-30.5 -12.5t-30.5 12.5t-12.5 29.5v171q0 18 12.5 30.5t30.5 12.5zM210 729
q18 0 30 -13l121 -121q13 -12 13 -30q0 -17 -12.5 -29.5t-30.5 -12.5t-30 12l-121 121q-12 12 -12 30t12.5 30.5t29.5 12.5zM768 427h171q17 0 29.5 -12.5t12.5 -30.5t-12.5 -30.5t-29.5 -12.5h-171q-18 0 -30.5 12.5t-12.5 30.5t12.5 30.5t30.5 12.5zM512 853
q18 0 30.5 -12.5t12.5 -29.5v-171q0 -18 -12.5 -30.5t-30.5 -12.5t-30.5 12.5t-12.5 30.5v171q0 17 12.5 29.5t30.5 12.5zM814 729q17 0 30 -13t13 -30q0 -18 -13 -30l-121 -121q-12 -12 -30 -12t-30 12t-12 30t12 30l121 121q12 13 30 13z" />
    <glyph glyph-name="roundleft" unicode="&#xe799;" 
d="M512 832q-185 0 -316.5 -131.5t-131.5 -316.5t131.5 -316.5t316.5 -131.5t316.5 131.5t131.5 316.5t-131.5 316.5t-316.5 131.5zM566 248q10 -9 10 -22.5t-9.5 -22.5t-23 -9t-22.5 9l-159 160v0v0q-3 3 -6 8q0 1 -0.5 1.5l-0.5 0.5q-8 20 7 35l160 158q10 10 23 10
t22.5 -9.5t9.5 -23t-10 -22.5l-137 -136z" />
    <glyph glyph-name="link" unicode="&#xe79b;" 
d="M166 384q0 55 39 93.5t94 38.5h170v81h-170q-89 0 -151.5 -62.5t-62.5 -150.5t62.5 -150.5t151.5 -62.5h170v81h-170q-55 0 -94 38.5t-39 93.5zM341 341h342v86h-342v-86zM725 597h-170v-81h170q55 0 94 -38.5t39 -93.5t-39 -93.5t-94 -38.5h-170v-81h170
q89 0 151.5 62.5t62.5 150.5t-62.5 150.5t-151.5 62.5z" />
    <glyph glyph-name="localoffer" unicode="&#xe7a5;" 
d="M913 402l-383 384q-26 25 -61 25h-298q-36 0 -61 -25t-25 -61v-298q0 -36 26 -61l384 -384q24 -25 60 -25q35 0 60 25l299 299q25 25 25 60q0 36 -26 61zM234.5 597q-26.5 0 -45 19t-18.5 45.5t18.5 45t45 18.5t45.5 -18.5t19 -45t-19 -45.5t-45.5 -19z" />
    <glyph glyph-name="tablet-h" unicode="&#xe7bd;" 
d="M985 699q0 33 -23.5 56t-55.5 23h-788q-32 0 -55.5 -23t-23.5 -56v-630q0 -33 23.5 -56t55.5 -23h788q32 0 55.5 23t23.5 56v630zM136 325q-25 0 -42 17t-17 42t17 42t42 17t42 -17t17 -42t-17.5 -42t-41.5 -17zM866 138q0 -12 -8.5 -21t-20.5 -9h-571q-12 0 -21 9t-9 21
v492q0 12 9 21t21 9h571q12 0 20.5 -9t8.5 -21v-492z" />
    <glyph glyph-name="maximize" unicode="&#xe7c1;" 
d="M597.5 342q17.5 0 30.5 -13l268 -268v195q0 18 12.5 30.5t30 12.5t30 -12.5t12.5 -30.5v-298q0 -18 -12.5 -30.5t-30.5 -12.5h-298q-18 0 -30.5 12.5t-12.5 30t12.5 30t30.5 12.5h195l-268 268q-12 13 -12 31q0 17 12.5 30t30 13zM85 853h299q18 0 30.5 -12.5t12.5 -30
t-12.5 -30t-30.5 -12.5h-196l269 -268q12 -13 12 -30.5t-12.5 -30t-30.5 -12.5q-17 0 -30 12l-268 269v-196q0 -18 -12.5 -30.5t-30 -12.5t-30 12.5t-12.5 30.5v299q0 17 12.5 29.5t29.5 12.5z" />
    <glyph glyph-name="minimize" unicode="&#xe7dd;" 
d="M85 853q18 0 31 -12l268 -268v195q0 18 12.5 30.5t30 12.5t30 -12.5t12.5 -30.5v-298q0 -18 -12.5 -30.5t-30.5 -12.5h-298q-18 0 -30.5 12.5t-12.5 30t12.5 30t30.5 12.5h195l-268 268q-12 13 -12 31t12 30t30 12zM598 341h298q18 0 30.5 -12.5t12.5 -30t-12.5 -30
t-30.5 -12.5h-195l268 -268q12 -13 12 -30.5t-12.5 -30t-29.5 -12.5q-18 0 -31 12l-268 268v-195q0 -18 -12.5 -30.5t-30 -12.5t-30 12.5t-12.5 30.5v298q0 18 12.5 30.5t30.5 12.5z" />
    <glyph glyph-name="sidebar-off" unicode="&#xe7e7;" 
d="M460 642q22 0 37.5 16t15.5 38t-15.5 38t-37.5 16h-347q-22 0 -38 -16t-16 -38t16 -38t38 -16h347zM113 436q-22 0 -38 -15.5t-16 -38t16 -38t38 -15.5h347q22 0 37.5 15.5t15.5 38t-15.5 38t-37.5 15.5h-347zM113 122q-22 0 -38 -15.5t-16 -37.5t16 -38t38 -16h347
q22 0 37.5 16t15.5 38t-15.5 37.5t-37.5 15.5h-347zM676.5 631.5q-12.5 -5.5 -12.5 -19.5v-460q0 -14 12 -20q4 -2 9 -2q8 0 14 6l259 230q7 7 7 16.5t-7 15.5l-259 230q-10 9 -22.5 3.5z" />
    <glyph glyph-name="video" unicode="&#xe7ee;" horiz-adv-x="1098" 
d="M219 24v74q0 14 -10.5 25t-25.5 11h-73q-15 0 -26 -11t-11 -25v-74q0 -14 11 -25t26 -11h73q15 0 25.5 11t10.5 25zM219 244v73q0 15 -10.5 25.5t-25.5 10.5h-73q-15 0 -26 -10.5t-11 -25.5v-73q0 -15 11 -26t26 -11h73q15 0 25.5 11t10.5 26zM219 463v73q0 15 -10.5 26
t-25.5 11h-73q-15 0 -26 -11t-11 -26v-73q0 -15 11 -25.5t26 -10.5h73q15 0 25.5 10.5t10.5 25.5zM805 24v293q0 15 -11 25.5t-26 10.5h-439q-15 0 -25.5 -10.5t-10.5 -25.5v-293q0 -14 10.5 -25t25.5 -11h439q15 0 26 11t11 25zM219 683v73q0 15 -10.5 25.5t-25.5 10.5h-73
q-15 0 -26 -10.5t-11 -25.5v-73q0 -15 11 -26t26 -11h73q15 0 25.5 11t10.5 26zM1024 24v74q0 14 -11 25t-26 11h-73q-15 0 -25.5 -11t-10.5 -25v-74q0 -14 10.5 -25t25.5 -11h73q15 0 26 11t11 25zM805 463v293q0 15 -11 25.5t-26 10.5h-439q-15 0 -25.5 -10.5t-10.5 -25.5
v-293q0 -15 10.5 -25.5t25.5 -10.5h439q15 0 26 10.5t11 25.5zM1024 244v73q0 15 -11 25.5t-26 10.5h-73q-15 0 -25.5 -10.5t-10.5 -25.5v-73q0 -15 10.5 -26t25.5 -11h73q15 0 26 11t11 26zM1024 463v73q0 15 -11 26t-26 11h-73q-15 0 -25.5 -11t-10.5 -26v-73
q0 -15 10.5 -25.5t25.5 -10.5h73q15 0 26 10.5t11 25.5zM1024 683v73q0 15 -11 25.5t-26 10.5h-73q-15 0 -25.5 -10.5t-10.5 -25.5v-73q0 -15 10.5 -26t25.5 -11h73q15 0 26 11t11 26zM1097 774v-768q0 -38 -27 -64.5t-64 -26.5h-915q-37 0 -64 26.5t-27 64.5v768
q0 38 27 64.5t64 26.5h915q37 0 64 -26.5t27 -64.5z" />
    <glyph glyph-name="skyatlas" unicode="&#xe7f1;" horiz-adv-x="1184" 
d="M966 446q84 0 144 -56t60 -140q0 -89 -62 -149t-153 -60q-48 0 -92 16t-79 42t-67.5 60.5t-62 72.5t-59 75.5t-62 72t-67 60.5t-78 42t-90.5 16q-88 0 -144 -52.5t-56 -139.5q0 -90 59.5 -143t150.5 -53q57 0 119 21.5t110 55.5q3 3 12 11t17 13.5t13 5.5q8 0 14 -6
t6 -14q0 -14 -34 -44q-58 -50 -134.5 -81t-148.5 -31q-76 0 -140.5 33t-103 94.5t-38.5 137.5q0 117 81 195t198 78q69 0 130 -25t106 -64.5t86.5 -87.5t79.5 -96t76 -87.5t85.5 -64.5t98.5 -25q58 0 96.5 35t38.5 93q0 54 -37 91t-91 37q-18 0 -47 -11t-39 -11
q-12 0 -20.5 9t-8.5 20q0 10 4.5 32.5t4.5 33.5q0 91 -61 150.5t-152 59.5q-33 0 -64 -10.5t-48 -23t-31.5 -23t-19.5 -10.5q-8 0 -14 6t-6 14q0 11 14 26q34 39 84 59.5t104 20.5q109 0 181.5 -71.5t72.5 -180.5q0 -21 -2 -37q33 8 66 8v0z" />
    <glyph glyph-name="paper" unicode="&#xe804;" 
d="M213 896h598q53 0 90.5 -37.5t37.5 -90.5v-768q0 -53 -37.5 -90.5t-90.5 -37.5h-598q-53 0 -90.5 37.5t-37.5 90.5v768q0 53 37.5 90.5t90.5 37.5zM341 171h342q17 0 29.5 -12.5t12.5 -30.5t-12.5 -30.5t-29.5 -12.5h-342q-17 0 -29.5 12.5t-12.5 30.5t12.5 30.5
t29.5 12.5zM341 341h342q17 0 29.5 -12.5t12.5 -30t-12.5 -30t-29.5 -12.5h-342q-17 0 -29.5 12.5t-12.5 30t12.5 30t29.5 12.5zM811 811h-598q-17 0 -29.5 -12.5t-12.5 -30.5v-768q0 -18 12.5 -30.5t29.5 -12.5h598q17 0 29.5 12.5t12.5 30.5v768q0 18 -12.5 30.5
t-29.5 12.5zM341 512h342q17 0 29.5 -12.5t12.5 -30t-12.5 -30t-29.5 -12.5h-342q-17 0 -29.5 12.5t-12.5 30t12.5 30t29.5 12.5zM341 683h171q18 0 30.5 -12.5t12.5 -30.5t-12.5 -30.5t-30.5 -12.5h-171q-17 0 -29.5 12.5t-12.5 30.5t12.5 30.5t29.5 12.5z" />
    <glyph glyph-name="personoutline" unicode="&#xe80d;" 
d="M512 680q42 0 72 -30t30 -72t-30 -72t-72 -30t-72 30t-30 72t30 72t72 30zM512 243q67 0 139 -19t114.5 -43t42.5 -40v-53h-592v53q0 16 42.5 40t114.5 43t139 19zM512 772q-80 0 -137 -56.5t-57 -137t57 -137.5t137 -57t137 57t57 137.5t-57 137t-137 56.5zM512 335
q-52 0 -116 -12.5t-126 -35.5t-104 -61.5t-42 -84.5v-145h776v145q0 46 -42 84.5t-104 61.5t-126 35.5t-116 12.5z" />
    <glyph glyph-name="phone" unicode="&#xe80e;" 
d="M283 435q46 -90 118 -162t163 -119l94 95q18 18 43 10q74 -24 152 -24q18 0 30.5 -12.5t12.5 -30.5v-149q0 -18 -12.5 -30.5t-30.5 -12.5q-147 0 -281.5 57.5t-231.5 154.5t-154.5 231.5t-57.5 281.5q0 18 12.5 30.5t30.5 12.5h149q18 0 30.5 -12.5t12.5 -30.5
q0 -78 24 -152q8 -25 -10 -43z" />
    <glyph glyph-name="peopleoutline" unicode="&#xe826;" 
d="M704 341q-42 0 -95.5 -11t-96.5 -32q-43 21 -96.5 32t-95.5 11q-37 0 -83 -9t-90 -25t-74 -44t-30 -60v-118h938v118q0 32 -30 60t-74 44t-90 25t-83 9zM533 149h-426v54q0 11 30.5 28.5t82 31.5t100.5 14t100.5 -14t82 -31.5t30.5 -28.5v-54zM917 149h-320v54
q0 27 -22 52q67 22 129 22q49 0 100.5 -14t82 -31.5t30.5 -28.5v-54zM320 384q62 0 105.5 44t43.5 105.5t-43.5 105.5t-105.5 44t-105.5 -44t-43.5 -105.5t43.5 -105.5t105.5 -44zM320 619q35 0 60 -25t25 -60.5t-25 -60.5t-60 -25t-60 25t-25 60.5t25 60.5t60 25zM704 384
q62 0 105.5 44t43.5 105.5t-43.5 105.5t-105.5 44t-105.5 -44t-43.5 -105.5t43.5 -105.5t105.5 -44zM704 619q35 0 60 -25t25 -60.5t-25 -60.5t-60 -25t-60 25t-25 60.5t25 60.5t60 25z" />
    <glyph glyph-name="playarrow" unicode="&#xe82f;" 
d="M341 683v-598l470 299z" />
    <glyph glyph-name="repeat" unicode="&#xe859;" 
d="M299 597h426v-128l171 171l-171 171v-128h-512v-256h86v170zM725 171h-426v128l-171 -171l171 -171v128h512v256h-86v-170z" />
    <glyph glyph-name="more" unicode="&#xe867;" 
d="M152 504q-50 0 -85 -35t-35 -85t35 -85t85 -35t85 35t35 85t-35 85t-85 35zM152 304q-33 0 -56.5 23.5t-23.5 56.5t23.5 56.5t56.5 23.5t56.5 -23.5t23.5 -56.5t-23.5 -56.5t-56.5 -23.5zM512 504q-50 0 -85 -35t-35 -85t35 -85t85 -35t85 35t35 85t-35 85t-85 35z
M512 304q-33 0 -56.5 23.5t-23.5 56.5t23.5 56.5t56.5 23.5t56.5 -23.5t23.5 -56.5t-23.5 -56.5t-56.5 -23.5zM872 504q-50 0 -85 -35t-35 -85t35 -85t85 -35t85 35t35 85t-35 85t-85 35zM872 304q-33 0 -56.5 23.5t-23.5 56.5t23.5 56.5t56.5 23.5t56.5 -23.5t23.5 -56.5
t-23.5 -56.5t-56.5 -23.5z" />
    <glyph glyph-name="share" unicode="&#xe88b;" 
d="M768 811q71 0 121 -50t50 -121t-50 -121t-121 -50q-38 0 -71.5 15.5t-57.5 43.5l-216 -108q4 -18 4 -36t-4 -36l216 -108q24 28 57.5 43.5t71.5 15.5q71 0 121 -50t50 -121t-50 -121t-121 -50t-121 50t-50 121q0 18 4 36l-216 108q-24 -28 -57.5 -43.5t-71.5 -15.5
q-71 0 -121 50t-50 121t50 121t121 50q38 0 71.5 -15.5t57.5 -43.5l216 108q-4 18 -4 36q0 71 50 121t121 50zM256 469q-35 0 -60 -25t-25 -60t25 -60t60 -25t60 25t25 60t-25 60t-60 25zM768 213q-35 0 -60 -25t-25 -60t25 -60t60 -25t60 25t25 60t-25 60t-60 25zM768 725
q-35 0 -60 -25t-25 -60t25 -60t60 -25t60 25t25 60t-25 60t-60 25z" />
    <glyph glyph-name="basket" unicode="&#xe88f;" 
d="M734 512l-187 280q-11 18 -35 18q-23 0 -35 -18l-187 -280h-205q-17 0 -29.5 -12.5t-12.5 -30.5q0 -5 1 -11l108 -396q8 -27 31 -44.5t52 -17.5h554q29 0 52 17.5t30 45.5l109 395q1 5 1 11q0 18 -12.5 30.5t-29.5 12.5h-205zM384 512l128 188l128 -188h-256zM512 171
q-35 0 -60 25t-25 60t25 60t60 25t60 -25t25 -60t-25 -60t-60 -25z" />
    <glyph glyph-name="sort" unicode="&#xe89a;" 
d="M128 128h256v85h-256v-85zM128 640v-85h768v85h-768zM128 341h512v86h-512v-86z" />
    <glyph glyph-name="speechbubble" unicode="&#xe89d;" 
d="M171 853h682q53 0 90.5 -37.5t37.5 -90.5v-469q0 -53 -37.5 -90.5t-90.5 -37.5h-341l-299 -213v213h-42q-53 0 -90.5 37.5t-37.5 90.5v469q0 53 37.5 90.5t90.5 37.5zM853 768h-682q-18 0 -30.5 -12.5t-12.5 -30.5v-469q0 -18 12.5 -30.5t30.5 -12.5h128v-133l186 133
h368q18 0 30.5 12.5t12.5 30.5v469q0 18 -12.5 30.5t-30.5 12.5z" />
    <glyph glyph-name="stop" unicode="&#xe8af;" 
d="M256 640h512v-512h-512v512z" />
    <glyph glyph-name="squareminus" unicode="&#xe8b4;" 
d="M171 853h682q53 0 90.5 -37.5t37.5 -90.5v-682q0 -53 -37.5 -90.5t-90.5 -37.5h-682q-53 0 -90.5 37.5t-37.5 90.5v682q0 53 37.5 90.5t90.5 37.5zM853 768h-682q-18 0 -30.5 -12.5t-12.5 -30.5v-682q0 -18 12.5 -30.5t30.5 -12.5h682q18 0 30.5 12.5t12.5 30.5v682
q0 18 -12.5 30.5t-30.5 12.5zM341 427h342q17 0 29.5 -12.5t12.5 -30.5t-12.5 -30.5t-29.5 -12.5h-342q-17 0 -29.5 12.5t-12.5 30.5t12.5 30.5t29.5 12.5z" />
    <glyph glyph-name="squareplus" unicode="&#xe8b5;" 
d="M171 853h682q53 0 90.5 -37.5t37.5 -90.5v-682q0 -53 -37.5 -90.5t-90.5 -37.5h-682q-53 0 -90.5 37.5t-37.5 90.5v682q0 53 37.5 90.5t90.5 37.5zM853 768h-682q-18 0 -30.5 -12.5t-12.5 -30.5v-682q0 -18 12.5 -30.5t30.5 -12.5h682q18 0 30.5 12.5t12.5 30.5v682
q0 18 -12.5 30.5t-30.5 12.5zM512 597q18 0 30.5 -12.5t12.5 -29.5v-128h128q17 0 29.5 -12.5t12.5 -30.5t-12.5 -30.5t-29.5 -12.5h-128v-128q0 -17 -12.5 -29.5t-30.5 -12.5t-30.5 12.5t-12.5 29.5v128h-128q-17 0 -29.5 12.5t-12.5 30.5t12.5 30.5t29.5 12.5h128v128
q0 17 12.5 29.5t30.5 12.5z" />
    <glyph glyph-name="stack" unicode="&#xe8b8;" 
d="M384 811h427q53 0 90.5 -37.5t37.5 -90.5v-427q0 -53 -37.5 -90.5t-90.5 -37.5h-427q-53 0 -90.5 37.5t-37.5 90.5v427q0 53 37.5 90.5t90.5 37.5zM171 633v-548q0 -17 12.5 -29.5t29.5 -12.5h548q-14 -38 -47 -62t-74 -24h-427q-53 0 -90.5 37.5t-37.5 90.5v427
q0 41 24 74t62 47zM811 725h-427q-18 0 -30.5 -12.5t-12.5 -29.5v-427q0 -18 12.5 -30.5t30.5 -12.5h427q17 0 29.5 12.5t12.5 30.5v427q0 17 -12.5 29.5t-29.5 12.5z" />
    <glyph glyph-name="star" unicode="&#xe8b9;" 
d="M512 123l281 -170l-74 320l248 215l-327 28l-128 302l-128 -302l-327 -28l248 -215l-74 -320z" />
    <glyph glyph-name="timerauto" unicode="&#xe8df;" 
d="M512 772q-80 0 -137 -56.5t-57 -137t57 -137.5t137 -57t137 57t57 137.5t-57 137t-137 56.5zM512 287q-52 0 -116 -12.5t-126 -35.5t-104 -62t-42 -84v-97h776v97q0 45 -42 84t-104 62t-126 35.5t-116 12.5z" />
    <glyph glyph-name="volumedown" unicode="&#xe909;" 
d="M895 384q0 77 -40.5 140.5t-106.5 96.5v-474q66 33 106.5 96.5t40.5 140.5zM100 561v-354h235l295 -294v942l-295 -294h-235z" />
    <glyph glyph-name="mobile-h" unicode="&#xe90a;" 
d="M892 149v439q0 6 -4.5 11t-10.5 5h-696q-7 0 -11.5 -5t-4.5 -11v-439q0 -6 4.5 -11t11.5 -5h696q6 0 10.5 5t4.5 11v0v0zM868 336q0 -6 -5.5 -6t-5.5 6t5.5 6t5.5 -6v0v0zM868 437v-70q0 -5 -5.5 -5t-5.5 5v70q0 5 5.5 5t5.5 -5v0v0zM193 368q0 16 11.5 27.5t27.5 11.5
t27 -11.5t11 -27t-11 -27t-27 -11.5t-27.5 11.5t-11.5 26.5v0v0zM312 170q-4 0 -7.5 4t-3.5 10v369q0 6 3.5 10t7.5 4h512q4 0 7.5 -4t3.5 -10v-369q0 -6 -3.5 -10t-7.5 -4h-512v0v0z" />
    <glyph glyph-name="tablet" unicode="&#xe90b;" 
d="M197 857q-33 0 -56 -23.5t-23 -55.5v-788q0 -32 23 -55.5t56 -23.5h630q33 0 56 23.5t23 55.5v788q0 32 -23 55.5t-56 23.5h-630zM571 8q0 -25 -17 -42t-42 -17t-42 17t-17 42t17 42t42 17t42 -17.5t17 -41.5zM758 738q12 0 21 -8.5t9 -20.5v-571q0 -12 -9 -21t-21 -9
h-492q-12 0 -21 9t-9 21v571q0 12 9 20.5t21 8.5h492z" />
    <glyph glyph-name="sidebar-on" unicode="&#xe9e9;" 
d="M571 635h336q21 0 36 15.5t15 37t-15 36.5t-36 15h-336q-21 0 -36.5 -15t-15.5 -36.5t15.5 -37t36.5 -15.5zM907 436h-336q-21 0 -36.5 -15t-15.5 -37t15.5 -37t36.5 -15h336q21 0 36 15t15 37t-15 37t-36 15zM907 133h-336q-21 0 -36.5 -15.5t-15.5 -37t15.5 -36.5
t36.5 -15h336q21 0 36 15t15 36.5t-15 37t-36 15.5zM362 625q-12 5 -22 -3l-250 -223q-7 -6 -7 -15.5t7 -15.5l250 -222q6 -6 14 -6q4 0 8 2q12 6 12 19v445q0 14 -12 19z" />
  </font>
</defs>
</svg>
